<svg width="21" height="21" viewBox="0 0 21 21" fill="none" xmlns="http://www.w3.org/2000/svg">
<path d="M10.9167 2.07058C9.23102 2.07058 7.85948 3.44198 7.85948 5.12761C7.85948 6.81347 9.23102 8.18479 10.9167 8.18479C12.6023 8.18479 13.9739 6.81347 13.9739 5.12761C13.9739 3.44198 12.6023 2.07058 10.9167 2.07058ZM10.9167 9.85013C8.31266 9.85013 6.19435 7.73183 6.19435 5.12761C6.19435 2.52362 8.31266 0.405247 10.9167 0.405247C13.5207 0.405247 15.639 2.52362 15.639 5.12761C15.639 7.73183 13.5207 9.85013 10.9167 9.85013" fill="black"/>
<path d="M2.62285 18.7398H19.2104C19.0227 16.7808 18.1656 14.9685 16.7575 13.5725C15.8267 12.6501 14.5044 12.1196 13.133 12.1196H8.7003C7.32493 12.1196 6.00664 12.6501 5.07583 13.5725C3.66781 14.9685 2.81065 16.7808 2.62285 18.7398ZM20.084 20.4052H1.74934C1.28823 20.4052 0.916672 20.0337 0.916672 19.5725C0.916672 16.8501 1.97796 14.2991 3.90037 12.3888C5.14126 11.1562 6.89226 10.4501 8.7003 10.4501H13.133C14.9453 10.4501 16.6921 11.1562 17.933 12.3888C19.8554 14.2991 20.9167 16.8501 20.9167 19.5725C20.9167 20.0337 20.5452 20.4052 20.084 20.4052" fill="black"/>
</svg>
