<svg width="40" height="40" viewBox="0 0 40 40" fill="none" xmlns="http://www.w3.org/2000/svg">
<path d="M20.0002 -0.000396729C8.95418 -0.000396729 0.000183105 8.9536 0.000183105 19.9996C0.000183105 31.0456 8.95418 39.9996 20.0002 39.9996C31.0462 39.9996 40.0002 31.0456 40.0002 19.9996C40.0002 8.9536 31.0462 -0.000396729 20.0002 -0.000396729ZM20.0002 2.89761C24.3572 2.89761 28.3342 4.5276 31.3542 7.2096C29.1352 10.1366 25.7642 12.0856 22.3862 13.4046C20.5452 10.0366 18.2782 6.4856 15.9712 3.3746C17.2622 3.0626 18.6112 2.89761 20.0002 2.89761ZM12.7242 4.5186C14.9532 7.8536 17.1132 10.9466 19.0872 14.4476C14.0962 15.7406 8.45821 16.5166 3.24921 16.5296C4.34721 11.2016 7.92618 6.7776 12.7242 4.5186ZM33.2512 9.18761C35.6372 12.1066 37.0742 15.8296 37.1022 19.8866C33.1462 19.1076 29.2112 18.9026 25.2062 19.3066C24.7552 18.1836 24.2102 17.1176 23.6872 15.9666C27.1402 14.5736 30.8322 12.1896 33.2512 9.18761ZM20.4762 17.0936C20.9042 18.0046 21.4002 18.9696 21.8652 19.9566C16.2952 22.4126 10.3712 25.6946 7.2952 31.4486C4.5622 28.4176 2.89819 24.4016 2.89819 19.9996C2.89819 19.8326 2.90119 19.6656 2.90619 19.4996C8.87119 19.4706 14.7262 18.7246 20.4762 17.0936ZM37.0442 21.4236C37.0392 21.4896 37.0332 21.5566 37.0262 21.6226C37.0332 21.5566 37.0392 21.4906 37.0442 21.4236ZM29.5132 21.7566C31.9992 21.7486 34.5682 22.0956 36.8892 22.7066C36.1302 27.4826 33.3922 31.6016 29.5422 34.1936C28.6242 30.0186 27.7492 26.0236 26.2022 21.9956C27.2692 21.8366 28.3832 21.7596 29.5132 21.7566ZM36.9782 22.0666C36.9662 22.1646 36.9552 22.2606 36.9412 22.3576C36.9552 22.2596 36.9672 22.1636 36.9782 22.0666ZM23.0372 22.7776C24.6142 26.8496 25.8512 31.3596 26.6812 35.7486C24.6282 36.6206 22.3712 37.1026 20.0002 37.1026C16.0452 37.1026 12.4032 35.7586 9.5062 33.5036C12.6032 28.4786 17.4002 24.6766 23.0372 22.7776Z" fill="black"/>
</svg>
