<svg xmlns="http://www.w3.org/2000/svg" viewBox="0 0 400 400" height="400" width="400" id="svg2" version="1.1" xmlns:dc="http://purl.org/dc/elements/1.1/" xmlns:cc="http://creativecommons.org/ns#" xmlns:rdf="http://www.w3.org/1999/02/22-rdf-syntax-ns#" xmlns:svg="http://www.w3.org/2000/svg" xml:space="preserve"><metadata id="metadata8"><rdf><work rdf:about=""><format>image/svg+xml</format><type rdf:resource="http://purl.org/dc/dcmitype/StillImage"/></work></rdf></metadata><defs id="defs6"/><g transform="matrix(1.3333333,0,0,-1.3333333,0,400)" id="g10"><g transform="scale(0.1)" id="g12"><path id="path14" style="fill-opacity:1;fill-rule:nonzero;stroke:none" d="m 1506.87,2587.11 c -225.04,0 -408.14,-183.08 -408.14,-408.11 0,-225.06 183.1,-408.13 408.14,-408.13 225.02,0 408.13,183.07 408.13,408.13 0,225.03 -183.11,408.11 -408.13,408.11 z m 0,-1038.56 c -347.64,0 -630.432,282.79 -630.432,630.45 0,347.63 282.792,630.43 630.432,630.43 347.63,0 630.42,-282.8 630.42,-630.43 0,-347.66 -282.79,-630.45 -630.42,-630.45 v 0"/><path id="path16" style="fill-opacity:1;fill-rule:nonzero;stroke:none" d="M 399.648,361.789 H 2614.07 c -25.06,261.531 -139.49,503.461 -327.47,689.831 -124.25,123.14 -300.78,193.96 -483.86,193.96 h -591.76 c -183.61,0 -359.601,-70.82 -483.863,-193.96 C 539.148,865.25 424.719,623.32 399.648,361.789 Z M 2730.69,139.461 H 283.035 c -61.558,0 -111.16,49.59 -111.16,111.16 0,363.438 141.68,704 398.32,959.019 165.657,164.55 399.414,258.82 640.785,258.82 h 591.76 c 241.94,0 475.14,-94.27 640.8,-258.82 256.63,-255.019 398.31,-595.581 398.31,-959.019 0,-61.57 -49.59,-111.16 -111.16,-111.16 v 0"/></g></g></svg>