<svg width="10" height="17" viewBox="0 0 10 17" fill="none" xmlns="http://www.w3.org/2000/svg">
      <path d="M0.0802641 5.1485L0.526264 5.5885C0.577331 5.63877 0.646111 5.66694 0.717764 5.66694C0.789416 5.66694 0.858196 5.63877 0.909264 5.5885L4.40926 2.1385L4.40926 16.7325C4.40979 16.8035 4.43837 16.8714 4.48876 16.9214C4.53915 16.9714 4.60727 16.9995 4.67826 16.9995H5.30926C5.34459 16.9998 5.37962 16.9931 5.41236 16.9798C5.4451 16.9665 5.4749 16.9469 5.50006 16.9221C5.52523 16.8973 5.54526 16.8678 5.55902 16.8353C5.57278 16.8028 5.58 16.7678 5.58026 16.7325L5.58026 2.1385L9.08026 5.5885C9.13133 5.63877 9.20011 5.66694 9.27176 5.66694C9.34342 5.66694 9.4122 5.63877 9.46326 5.5885L9.90926 5.1485C9.93433 5.12393 9.95424 5.0946 9.96783 5.06223C9.98143 5.02986 9.98843 4.99511 9.98843 4.96C9.98843 4.9249 9.98143 4.89015 9.96783 4.85778C9.95424 4.82541 9.93433 4.79608 9.90926 4.7715L5.18526 0.113504C5.1342 0.063242 5.06542 0.0350723 4.99376 0.0350723C4.92211 0.0350723 4.85333 0.063242 4.80226 0.113504L0.0802641 4.7715C0.0551984 4.79608 0.0352865 4.82541 0.0216932 4.85778C0.00809999 4.89015 0.00109863 4.9249 0.00109863 4.96C0.00109863 4.99511 0.00809999 5.02986 0.0216932 5.06223C0.0352865 5.0946 0.0551984 5.12393 0.0802641 5.1485Z" fill="#3A3A3A"/>
    </svg>