<svg xmlns="http://www.w3.org/2000/svg" viewBox="0 0 400 400" height="400" width="400" id="svg2" version="1.1" xmlns:dc="http://purl.org/dc/elements/1.1/" xmlns:cc="http://creativecommons.org/ns#" xmlns:rdf="http://www.w3.org/1999/02/22-rdf-syntax-ns#" xmlns:svg="http://www.w3.org/2000/svg" xml:space="preserve"><metadata id="metadata8"><rdf><work rdf:about=""><format>image/svg+xml</format><type rdf:resource="http://purl.org/dc/dcmitype/StillImage"/></work></rdf></metadata><defs id="defs6"/><g transform="matrix(1.3333333,0,0,-1.3333333,0,400)" id="g10"><g transform="scale(0.1)" id="g12"><path id="path14" style="fill-opacity:1;fill-rule:nonzero;stroke:none" d="m 903,2424.4 c 157.9,0 306.4,-61.5 418.1,-173.1 l 134.8,-134.9 c 20.7,-20.6 48.1,-32 77.1,-32 29,0 56.4,11.4 77,32 l 133.7,133.7 c 111.7,111.6 259.9,173.1 417.5,173.1 156.91,0 305,-61.3 416.8,-172.5 111.2,-111.3 172.5,-259.5 172.5,-417.5 0.6,-157.3 -60.69,-305.5 -172.5,-417.4 L 1531.5,373.5 487.402,1417.6 c -111.601,111.7 -173.105,259.9 -173.105,417.5 0,158.1 61.199,306.1 172.5,416.8 111.308,111.2 259.101,172.5 416.203,172.5 z m 1829.7,-19.6 c 0,0 0,0 -0.1,0 -152.4,152.4 -355.1,236.3 -570.9,236.3 -215.7,0 -418.7,-84.1 -571.5,-236.9 l -56.9,-57 -58.2,58.2 c -153.1,153.1 -356.3,237.5 -572.1,237.5 -215.305,0 -417.902,-83.9 -570.305,-236.3 -153,-153 -236.8942,-356 -236.2966,-571.5 0,-215 84.4026,-417.8 237.4966,-571 L 1454.7,143.301 c 20.5,-20.403 48.41,-32.199 76.8,-32.199 28.7,0 56.7,11.5 76.7,31.597 L 2731.5,1261.8 c 152.7,152.7 236.8,355.7 236.8,571.4 0.7,216 -83,419 -235.6,571.6"/></g></g></svg>