<svg xmlns="http://www.w3.org/2000/svg" viewBox="0 0 400 400" height="400" width="400" id="svg2" version="1.1" xmlns:dc="http://purl.org/dc/elements/1.1/" xmlns:cc="http://creativecommons.org/ns#" xmlns:rdf="http://www.w3.org/1999/02/22-rdf-syntax-ns#" xmlns:svg="http://www.w3.org/2000/svg" xml:space="preserve"><metadata id="metadata8"><rdf><work rdf:about=""><format>image/svg+xml</format><type rdf:resource="http://purl.org/dc/dcmitype/StillImage"/></work></rdf></metadata><defs id="defs6"/><g transform="matrix(1.3333333,0,0,-1.3333333,0,400)" id="g10"><g transform="scale(0.1)" id="g12"><path id="path14" style="/* fill:#231f20; */fill-opacity:1;fill-rule:nonzero;stroke:none;" d="m 784.238,1668.15 c 92.879,-92.87 92.879,-243.43 0,-336.3 -92.883,-92.89 -243.437,-92.89 -336.316,0 -92.883,92.87 -92.883,243.43 0,336.3 92.879,92.89 243.433,92.89 336.316,0"/><path id="path16" style="/* fill:#231f20; */fill-opacity:1;fill-rule:nonzero;stroke:none;" d="m 2572.08,1668.15 c 92.88,-92.87 92.88,-243.43 0,-336.3 -92.87,-92.89 -243.44,-92.89 -336.31,0 -92.88,92.87 -92.88,243.43 0,336.3 92.87,92.89 243.44,92.89 336.31,0"/><path id="path18" style="/* fill:#231f20; */fill-opacity:1;fill-rule:nonzero;stroke:none;" d="m 1678.15,1668.15 c 92.89,-92.87 92.89,-243.43 0,-336.3 -92.87,-92.89 -243.43,-92.89 -336.3,0 -92.89,92.87 -92.89,243.43 0,336.3 92.87,92.89 243.43,92.89 336.3,0"/></g></g></svg>