<svg width="310" height="254" viewBox="0 0 310 254" fill="none" xmlns="http://www.w3.org/2000/svg">
<path d="M302.973 29.388C298.103 31.548 293.096 33.371 287.98 34.851C294.037 28.001 298.655 19.941 301.474 11.121C302.106 9.144 301.451 6.98 299.826 5.687C298.203 4.393 295.948 4.238 294.161 5.297C283.296 11.741 271.574 16.372 259.283 19.08C246.902 6.982 230.086 0.0970001 212.702 0.0970001C176.007 0.0970001 146.153 29.95 146.153 66.644C146.153 69.534 146.336 72.408 146.698 75.242C101.163 71.244 58.83 48.863 29.76 13.204C28.724 11.933 27.128 11.248 25.494 11.379C23.859 11.507 22.39 12.429 21.564 13.846C15.668 23.963 12.551 35.534 12.551 47.307C12.551 63.342 18.276 78.556 28.389 90.444C25.314 89.379 22.33 88.048 19.482 86.467C17.953 85.616 16.087 85.629 14.568 86.5C13.048 87.371 12.095 88.973 12.055 90.724C12.048 91.019 12.048 91.314 12.048 91.613C12.048 115.548 24.93 137.097 44.625 148.842C42.933 148.673 41.242 148.428 39.562 148.107C37.83 147.776 36.049 148.383 34.881 149.704C33.711 151.024 33.324 152.864 33.863 154.544C41.153 177.304 59.922 194.045 82.612 199.149C63.793 210.936 42.272 217.11 19.68 217.11C14.966 217.11 10.225 216.833 5.585 216.284C3.28 216.01 1.076 217.371 0.291 219.563C-0.494 221.756 0.338 224.201 2.299 225.458C31.322 244.067 64.881 253.903 99.346 253.903C167.1 253.903 209.485 221.953 233.11 195.15C262.57 161.729 279.466 117.492 279.466 73.783C279.466 71.957 279.438 70.113 279.382 68.275C291.005 59.518 301.012 48.92 309.155 36.739C310.392 34.889 310.258 32.444 308.825 30.741C307.394 29.037 305.009 28.486 302.973 29.388Z" fill="black"/>
</svg>
